<svg id="bc-ssyrk-ldcpad8-nvidia_geforce_gtx_1650-gbs" xmlns="http://www.w3.org/2000/svg" viewBox="0 0 600 260" width="600" height="260" role="img" aria-label="GB/s vs n">
<style>#bc-ssyrk-ldcpad8-nvidia_geforce_gtx_1650-gbs .bg{fill:#fcfcfb}#bc-ssyrk-ldcpad8-nvidia_geforce_gtx_1650-gbs .gr{stroke:#e1e0d9;stroke-width:1;fill:none}#bc-ssyrk-ldcpad8-nvidia_geforce_gtx_1650-gbs .ax{stroke:#c3c2b7;stroke-width:1;fill:none}#bc-ssyrk-ldcpad8-nvidia_geforce_gtx_1650-gbs .at{fill:#898781;font:11px/1 system-ui,sans-serif}#bc-ssyrk-ldcpad8-nvidia_geforce_gtx_1650-gbs .lt{fill:#52514e;font:11px/1 system-ui,sans-serif}#bc-ssyrk-ldcpad8-nvidia_geforce_gtx_1650-gbs .ln1{stroke:#2a78d6;fill:none;stroke-width:2;stroke-linejoin:round;stroke-linecap:round}#bc-ssyrk-ldcpad8-nvidia_geforce_gtx_1650-gbs .mk1{fill:#2a78d6;stroke:#fcfcfb;stroke-width:2}#bc-ssyrk-ldcpad8-nvidia_geforce_gtx_1650-gbs .ln2{stroke:#008300;fill:none;stroke-width:2;stroke-linejoin:round;stroke-linecap:round}#bc-ssyrk-ldcpad8-nvidia_geforce_gtx_1650-gbs .mk2{fill:#008300;stroke:#fcfcfb;stroke-width:2}@media(prefers-color-scheme:dark){#bc-ssyrk-ldcpad8-nvidia_geforce_gtx_1650-gbs .bg{fill:#1a1a19}#bc-ssyrk-ldcpad8-nvidia_geforce_gtx_1650-gbs .gr{stroke:#2c2c2a}#bc-ssyrk-ldcpad8-nvidia_geforce_gtx_1650-gbs .ax{stroke:#383835}#bc-ssyrk-ldcpad8-nvidia_geforce_gtx_1650-gbs .at{fill:#898781}#bc-ssyrk-ldcpad8-nvidia_geforce_gtx_1650-gbs .lt{fill:#c3c2b7}#bc-ssyrk-ldcpad8-nvidia_geforce_gtx_1650-gbs .ln1{stroke:#3987e5}#bc-ssyrk-ldcpad8-nvidia_geforce_gtx_1650-gbs .mk1{fill:#3987e5;stroke:#1a1a19}#bc-ssyrk-ldcpad8-nvidia_geforce_gtx_1650-gbs .ln2{stroke:#008300}#bc-ssyrk-ldcpad8-nvidia_geforce_gtx_1650-gbs .mk2{fill:#008300;stroke:#1a1a19}}:root[data-theme=dark] #bc-ssyrk-ldcpad8-nvidia_geforce_gtx_1650-gbs .bg{fill:#1a1a19}:root[data-theme=dark] #bc-ssyrk-ldcpad8-nvidia_geforce_gtx_1650-gbs .gr{stroke:#2c2c2a}:root[data-theme=dark] #bc-ssyrk-ldcpad8-nvidia_geforce_gtx_1650-gbs .ax{stroke:#383835}:root[data-theme=dark] #bc-ssyrk-ldcpad8-nvidia_geforce_gtx_1650-gbs .lt{fill:#c3c2b7}:root[data-theme=dark] #bc-ssyrk-ldcpad8-nvidia_geforce_gtx_1650-gbs .ln1{stroke:#3987e5}:root[data-theme=dark] #bc-ssyrk-ldcpad8-nvidia_geforce_gtx_1650-gbs .mk1{fill:#3987e5;stroke:#1a1a19}:root[data-theme=dark] #bc-ssyrk-ldcpad8-nvidia_geforce_gtx_1650-gbs .mk2{stroke:#1a1a19}</style>
<rect class="bg" width="600" height="260"/>
<line class="gr" x1="58" y1="220.0" x2="584" y2="220.0"/>
<line class="gr" x1="58" y1="186.7" x2="584" y2="186.7"/>
<line class="gr" x1="58" y1="153.3" x2="584" y2="153.3"/>
<line class="gr" x1="58" y1="120.0" x2="584" y2="120.0"/>
<line class="gr" x1="58" y1="86.7" x2="584" y2="86.7"/>
<line class="gr" x1="58" y1="53.3" x2="584" y2="53.3"/>
<line class="gr" x1="58" y1="20.0" x2="584" y2="20.0"/>
<line class="ax" x1="58" y1="20" x2="58" y2="220"/>
<line class="ax" x1="58" y1="220" x2="584" y2="220"/>
<text class="at" x="52" y="224.0" text-anchor="end">0</text>
<text class="at" x="52" y="190.7" text-anchor="end">5.0</text>
<text class="at" x="52" y="157.3" text-anchor="end">10</text>
<text class="at" x="52" y="124.0" text-anchor="end">15</text>
<text class="at" x="52" y="90.7" text-anchor="end">20</text>
<text class="at" x="52" y="57.3" text-anchor="end">25</text>
<text class="at" x="52" y="24.0" text-anchor="end">30</text>
<text class="lt" x="12" y="120.0" text-anchor="middle" transform="rotate(-90 12 120.0)">GB/s</text>
<text class="at" x="58.0" y="236" text-anchor="middle">64</text>
<text class="at" x="163.2" y="236" text-anchor="middle">128</text>
<text class="at" x="268.4" y="236" text-anchor="middle">256</text>
<text class="at" x="373.6" y="236" text-anchor="middle">512</text>
<text class="at" x="478.8" y="236" text-anchor="middle">1.0K</text>
<text class="at" x="584.0" y="236" text-anchor="middle">2.0K</text>
<polyline class="ln1" points="58.0,193.3 163.2,163.2 268.4,169.3 373.6,158.0 478.8,185.8 584.0,202.3"/>
<polyline class="ln2" points="58.0,191.4 163.2,142.4 268.4,34.7 373.6,25.2 478.8,41.8 584.0,127.1"/>
<circle class="mk1" cx="58.0" cy="193.3" r="4"/>
<circle class="mk1" cx="163.2" cy="163.2" r="4"/>
<circle class="mk1" cx="268.4" cy="169.3" r="4"/>
<circle class="mk1" cx="373.6" cy="158.0" r="4"/>
<circle class="mk1" cx="478.8" cy="185.8" r="4"/>
<circle class="mk1" cx="584.0" cy="202.3" r="4"/>
<circle class="mk2" cx="58.0" cy="191.4" r="4"/>
<circle class="mk2" cx="163.2" cy="142.4" r="4"/>
<circle class="mk2" cx="268.4" cy="34.7" r="4"/>
<circle class="mk2" cx="373.6" cy="25.2" r="4"/>
<circle class="mk2" cx="478.8" cy="41.8" r="4"/>
<circle class="mk2" cx="584.0" cy="127.1" r="4"/>
<line class="ln1" x1="58" y1="252" x2="74" y2="252"/>
<circle class="mk1" cx="66" cy="252" r="4"/>
<text class="lt" x="80" y="256">wgblas</text>
<line class="ln2" x1="132" y1="252" x2="148" y2="252"/>
<circle class="mk2" cx="140" cy="252" r="4"/>
<text class="lt" x="154" y="256">cuBLAS</text>
</svg>