<svg id="bc-strsv-diagnonunit-nvidia_geforce_gtx_1650-ms" xmlns="http://www.w3.org/2000/svg" viewBox="0 0 600 260" width="600" height="260" role="img" aria-label="ms vs n">
<style>#bc-strsv-diagnonunit-nvidia_geforce_gtx_1650-ms .bg{fill:#fcfcfb}#bc-strsv-diagnonunit-nvidia_geforce_gtx_1650-ms .gr{stroke:#e1e0d9;stroke-width:1;fill:none}#bc-strsv-diagnonunit-nvidia_geforce_gtx_1650-ms .ax{stroke:#c3c2b7;stroke-width:1;fill:none}#bc-strsv-diagnonunit-nvidia_geforce_gtx_1650-ms .at{fill:#898781;font:11px/1 system-ui,sans-serif}#bc-strsv-diagnonunit-nvidia_geforce_gtx_1650-ms .lt{fill:#52514e;font:11px/1 system-ui,sans-serif}#bc-strsv-diagnonunit-nvidia_geforce_gtx_1650-ms .ln1{stroke:#2a78d6;fill:none;stroke-width:2;stroke-linejoin:round;stroke-linecap:round}#bc-strsv-diagnonunit-nvidia_geforce_gtx_1650-ms .mk1{fill:#2a78d6;stroke:#fcfcfb;stroke-width:2}#bc-strsv-diagnonunit-nvidia_geforce_gtx_1650-ms .ln2{stroke:#008300;fill:none;stroke-width:2;stroke-linejoin:round;stroke-linecap:round}#bc-strsv-diagnonunit-nvidia_geforce_gtx_1650-ms .mk2{fill:#008300;stroke:#fcfcfb;stroke-width:2}@media(prefers-color-scheme:dark){#bc-strsv-diagnonunit-nvidia_geforce_gtx_1650-ms .bg{fill:#1a1a19}#bc-strsv-diagnonunit-nvidia_geforce_gtx_1650-ms .gr{stroke:#2c2c2a}#bc-strsv-diagnonunit-nvidia_geforce_gtx_1650-ms .ax{stroke:#383835}#bc-strsv-diagnonunit-nvidia_geforce_gtx_1650-ms .at{fill:#898781}#bc-strsv-diagnonunit-nvidia_geforce_gtx_1650-ms .lt{fill:#c3c2b7}#bc-strsv-diagnonunit-nvidia_geforce_gtx_1650-ms .ln1{stroke:#3987e5}#bc-strsv-diagnonunit-nvidia_geforce_gtx_1650-ms .mk1{fill:#3987e5;stroke:#1a1a19}#bc-strsv-diagnonunit-nvidia_geforce_gtx_1650-ms .ln2{stroke:#008300}#bc-strsv-diagnonunit-nvidia_geforce_gtx_1650-ms .mk2{fill:#008300;stroke:#1a1a19}}:root[data-theme=dark] #bc-strsv-diagnonunit-nvidia_geforce_gtx_1650-ms .bg{fill:#1a1a19}:root[data-theme=dark] #bc-strsv-diagnonunit-nvidia_geforce_gtx_1650-ms .gr{stroke:#2c2c2a}:root[data-theme=dark] #bc-strsv-diagnonunit-nvidia_geforce_gtx_1650-ms .ax{stroke:#383835}:root[data-theme=dark] #bc-strsv-diagnonunit-nvidia_geforce_gtx_1650-ms .lt{fill:#c3c2b7}:root[data-theme=dark] #bc-strsv-diagnonunit-nvidia_geforce_gtx_1650-ms .ln1{stroke:#3987e5}:root[data-theme=dark] #bc-strsv-diagnonunit-nvidia_geforce_gtx_1650-ms .mk1{fill:#3987e5;stroke:#1a1a19}:root[data-theme=dark] #bc-strsv-diagnonunit-nvidia_geforce_gtx_1650-ms .mk2{stroke:#1a1a19}</style>
<rect class="bg" width="600" height="260"/>
<line class="gr" x1="58" y1="220.0" x2="584" y2="220.0"/>
<line class="gr" x1="58" y1="170.0" x2="584" y2="170.0"/>
<line class="gr" x1="58" y1="120.0" x2="584" y2="120.0"/>
<line class="gr" x1="58" y1="70.0" x2="584" y2="70.0"/>
<line class="gr" x1="58" y1="20.0" x2="584" y2="20.0"/>
<line class="ax" x1="58" y1="20" x2="58" y2="220"/>
<line class="ax" x1="58" y1="220" x2="584" y2="220"/>
<text class="at" x="52" y="224.0" text-anchor="end">0</text>
<text class="at" x="52" y="174.0" text-anchor="end">1.00</text>
<text class="at" x="52" y="124.0" text-anchor="end">2.00</text>
<text class="at" x="52" y="74.0" text-anchor="end">3.00</text>
<text class="at" x="52" y="24.0" text-anchor="end">4.00</text>
<text class="lt" x="12" y="120.0" text-anchor="middle" transform="rotate(-90 12 120.0)">ms</text>
<text class="at" x="58.0" y="236" text-anchor="middle">32</text>
<text class="at" x="133.1" y="236" text-anchor="middle">64</text>
<text class="at" x="208.3" y="236" text-anchor="middle">128</text>
<text class="at" x="283.4" y="236" text-anchor="middle">256</text>
<text class="at" x="358.6" y="236" text-anchor="middle">512</text>
<text class="at" x="433.7" y="236" text-anchor="middle">1.0K</text>
<text class="at" x="457.9" y="236" text-anchor="middle">1.3K</text>
<text class="at" x="508.9" y="236" text-anchor="middle">2.0K</text>
<text class="at" x="584.0" y="236" text-anchor="middle">4.1K</text>
<polyline class="ln1" points="58.0,217.7 133.1,215.8 208.3,215.1 283.4,212.6 358.6,205.2 433.7,189.1 457.9,180.5 508.9,152.4 584.0,68.4"/>
<polyline class="ln2" points="58.0,219.5 133.1,219.4 208.3,219.2 283.4,218.8 358.6,218.0 433.7,215.5 457.9,214.5 508.9,211.0 584.0,200.2"/>
<circle class="mk1" cx="58.0" cy="217.7" r="4"/>
<circle class="mk1" cx="133.1" cy="215.8" r="4"/>
<circle class="mk1" cx="208.3" cy="215.1" r="4"/>
<circle class="mk1" cx="283.4" cy="212.6" r="4"/>
<circle class="mk1" cx="358.6" cy="205.2" r="4"/>
<circle class="mk1" cx="433.7" cy="189.1" r="4"/>
<circle class="mk1" cx="457.9" cy="180.5" r="4"/>
<circle class="mk1" cx="508.9" cy="152.4" r="4"/>
<circle class="mk1" cx="584.0" cy="68.4" r="4"/>
<circle class="mk2" cx="58.0" cy="219.5" r="4"/>
<circle class="mk2" cx="133.1" cy="219.4" r="4"/>
<circle class="mk2" cx="208.3" cy="219.2" r="4"/>
<circle class="mk2" cx="283.4" cy="218.8" r="4"/>
<circle class="mk2" cx="358.6" cy="218.0" r="4"/>
<circle class="mk2" cx="433.7" cy="215.5" r="4"/>
<circle class="mk2" cx="457.9" cy="214.5" r="4"/>
<circle class="mk2" cx="508.9" cy="211.0" r="4"/>
<circle class="mk2" cx="584.0" cy="200.2" r="4"/>
</svg>