<svg id="bc-saxpy-stride4-intel_r_iris_r_xe_graphics_tgl_gt2-gbs" xmlns="http://www.w3.org/2000/svg" viewBox="0 0 600 260" width="600" height="260" role="img" aria-label="GB/s vs n">
<style>#bc-saxpy-stride4-intel_r_iris_r_xe_graphics_tgl_gt2-gbs .bg{fill:#fcfcfb}#bc-saxpy-stride4-intel_r_iris_r_xe_graphics_tgl_gt2-gbs .gr{stroke:#e1e0d9;stroke-width:1;fill:none}#bc-saxpy-stride4-intel_r_iris_r_xe_graphics_tgl_gt2-gbs .ax{stroke:#c3c2b7;stroke-width:1;fill:none}#bc-saxpy-stride4-intel_r_iris_r_xe_graphics_tgl_gt2-gbs .at{fill:#898781;font:11px/1 system-ui,sans-serif}#bc-saxpy-stride4-intel_r_iris_r_xe_graphics_tgl_gt2-gbs .lt{fill:#52514e;font:11px/1 system-ui,sans-serif}#bc-saxpy-stride4-intel_r_iris_r_xe_graphics_tgl_gt2-gbs .ln1{stroke:#2a78d6;fill:none;stroke-width:2;stroke-linejoin:round;stroke-linecap:round}#bc-saxpy-stride4-intel_r_iris_r_xe_graphics_tgl_gt2-gbs .mk1{fill:#2a78d6;stroke:#fcfcfb;stroke-width:2}#bc-saxpy-stride4-intel_r_iris_r_xe_graphics_tgl_gt2-gbs .ln2{stroke:#008300;fill:none;stroke-width:2;stroke-linejoin:round;stroke-linecap:round}#bc-saxpy-stride4-intel_r_iris_r_xe_graphics_tgl_gt2-gbs .mk2{fill:#008300;stroke:#fcfcfb;stroke-width:2}@media(prefers-color-scheme:dark){#bc-saxpy-stride4-intel_r_iris_r_xe_graphics_tgl_gt2-gbs .bg{fill:#1a1a19}#bc-saxpy-stride4-intel_r_iris_r_xe_graphics_tgl_gt2-gbs .gr{stroke:#2c2c2a}#bc-saxpy-stride4-intel_r_iris_r_xe_graphics_tgl_gt2-gbs .ax{stroke:#383835}#bc-saxpy-stride4-intel_r_iris_r_xe_graphics_tgl_gt2-gbs .at{fill:#898781}#bc-saxpy-stride4-intel_r_iris_r_xe_graphics_tgl_gt2-gbs .lt{fill:#c3c2b7}#bc-saxpy-stride4-intel_r_iris_r_xe_graphics_tgl_gt2-gbs .ln1{stroke:#3987e5}#bc-saxpy-stride4-intel_r_iris_r_xe_graphics_tgl_gt2-gbs .mk1{fill:#3987e5;stroke:#1a1a19}#bc-saxpy-stride4-intel_r_iris_r_xe_graphics_tgl_gt2-gbs .ln2{stroke:#008300}#bc-saxpy-stride4-intel_r_iris_r_xe_graphics_tgl_gt2-gbs .mk2{fill:#008300;stroke:#1a1a19}}:root[data-theme=dark] #bc-saxpy-stride4-intel_r_iris_r_xe_graphics_tgl_gt2-gbs .bg{fill:#1a1a19}:root[data-theme=dark] #bc-saxpy-stride4-intel_r_iris_r_xe_graphics_tgl_gt2-gbs .gr{stroke:#2c2c2a}:root[data-theme=dark] #bc-saxpy-stride4-intel_r_iris_r_xe_graphics_tgl_gt2-gbs .ax{stroke:#383835}:root[data-theme=dark] #bc-saxpy-stride4-intel_r_iris_r_xe_graphics_tgl_gt2-gbs .lt{fill:#c3c2b7}:root[data-theme=dark] #bc-saxpy-stride4-intel_r_iris_r_xe_graphics_tgl_gt2-gbs .ln1{stroke:#3987e5}:root[data-theme=dark] #bc-saxpy-stride4-intel_r_iris_r_xe_graphics_tgl_gt2-gbs .mk1{fill:#3987e5;stroke:#1a1a19}:root[data-theme=dark] #bc-saxpy-stride4-intel_r_iris_r_xe_graphics_tgl_gt2-gbs .mk2{stroke:#1a1a19}</style>
<rect class="bg" width="600" height="260"/>
<line class="gr" x1="58" y1="220.0" x2="584" y2="220.0"/>
<line class="gr" x1="58" y1="186.7" x2="584" y2="186.7"/>
<line class="gr" x1="58" y1="153.3" x2="584" y2="153.3"/>
<line class="gr" x1="58" y1="120.0" x2="584" y2="120.0"/>
<line class="gr" x1="58" y1="86.7" x2="584" y2="86.7"/>
<line class="gr" x1="58" y1="53.3" x2="584" y2="53.3"/>
<line class="gr" x1="58" y1="20.0" x2="584" y2="20.0"/>
<line class="ax" x1="58" y1="20" x2="58" y2="220"/>
<line class="ax" x1="58" y1="220" x2="584" y2="220"/>
<text class="at" x="52" y="224.0" text-anchor="end">0</text>
<text class="at" x="52" y="190.7" text-anchor="end">1.0</text>
<text class="at" x="52" y="157.3" text-anchor="end">2.0</text>
<text class="at" x="52" y="124.0" text-anchor="end">3.0</text>
<text class="at" x="52" y="90.7" text-anchor="end">4.0</text>
<text class="at" x="52" y="57.3" text-anchor="end">5.0</text>
<text class="at" x="52" y="24.0" text-anchor="end">6.0</text>
<text class="lt" x="12" y="120.0" text-anchor="middle" transform="rotate(-90 12 120.0)">GB/s</text>
<text class="at" x="58.0" y="236" text-anchor="middle">32</text>
<text class="at" x="88.9" y="236" text-anchor="middle">64</text>
<text class="at" x="119.9" y="236" text-anchor="middle">128</text>
<text class="at" x="181.8" y="236" text-anchor="middle">512</text>
<text class="at" x="212.7" y="236" text-anchor="middle">1.0K</text>
<text class="at" x="274.6" y="236" text-anchor="middle">4.1K</text>
<text class="at" x="336.5" y="236" text-anchor="middle">16K</text>
<text class="at" x="398.4" y="236" text-anchor="middle">65K</text>
<text class="at" x="460.2" y="236" text-anchor="middle">262K</text>
<text class="at" x="522.1" y="236" text-anchor="middle">1.0M</text>
<text class="at" x="584.0" y="236" text-anchor="middle">4.2M</text>
<polyline class="ln1" points="58.0,219.8 88.9,219.6 119.9,219.2 181.8,216.9 212.7,213.8 274.6,195.0 336.5,120.0 398.4,120.0 460.2,131.1 522.1,42.2 584.0,51.6"/>
<circle class="mk1" cx="58.0" cy="219.8" r="4"/>
<circle class="mk1" cx="88.9" cy="219.6" r="4"/>
<circle class="mk1" cx="119.9" cy="219.2" r="4"/>
<circle class="mk1" cx="181.8" cy="216.9" r="4"/>
<circle class="mk1" cx="212.7" cy="213.8" r="4"/>
<circle class="mk1" cx="274.6" cy="195.0" r="4"/>
<circle class="mk1" cx="336.5" cy="120.0" r="4"/>
<circle class="mk1" cx="398.4" cy="120.0" r="4"/>
<circle class="mk1" cx="460.2" cy="131.1" r="4"/>
<circle class="mk1" cx="522.1" cy="42.2" r="4"/>
<circle class="mk1" cx="584.0" cy="51.6" r="4"/>
</svg>