<svg id="bc-saxpy-stride256-nvidia_geforce_gtx_1650-gbs" xmlns="http://www.w3.org/2000/svg" viewBox="0 0 600 260" width="600" height="260" role="img" aria-label="GB/s vs n">
<style>#bc-saxpy-stride256-nvidia_geforce_gtx_1650-gbs .bg{fill:#fcfcfb}#bc-saxpy-stride256-nvidia_geforce_gtx_1650-gbs .gr{stroke:#e1e0d9;stroke-width:1;fill:none}#bc-saxpy-stride256-nvidia_geforce_gtx_1650-gbs .ax{stroke:#c3c2b7;stroke-width:1;fill:none}#bc-saxpy-stride256-nvidia_geforce_gtx_1650-gbs .at{fill:#898781;font:11px/1 system-ui,sans-serif}#bc-saxpy-stride256-nvidia_geforce_gtx_1650-gbs .lt{fill:#52514e;font:11px/1 system-ui,sans-serif}#bc-saxpy-stride256-nvidia_geforce_gtx_1650-gbs .ln1{stroke:#2a78d6;fill:none;stroke-width:2;stroke-linejoin:round;stroke-linecap:round}#bc-saxpy-stride256-nvidia_geforce_gtx_1650-gbs .mk1{fill:#2a78d6;stroke:#fcfcfb;stroke-width:2}#bc-saxpy-stride256-nvidia_geforce_gtx_1650-gbs .ln2{stroke:#008300;fill:none;stroke-width:2;stroke-linejoin:round;stroke-linecap:round}#bc-saxpy-stride256-nvidia_geforce_gtx_1650-gbs .mk2{fill:#008300;stroke:#fcfcfb;stroke-width:2}@media(prefers-color-scheme:dark){#bc-saxpy-stride256-nvidia_geforce_gtx_1650-gbs .bg{fill:#1a1a19}#bc-saxpy-stride256-nvidia_geforce_gtx_1650-gbs .gr{stroke:#2c2c2a}#bc-saxpy-stride256-nvidia_geforce_gtx_1650-gbs .ax{stroke:#383835}#bc-saxpy-stride256-nvidia_geforce_gtx_1650-gbs .at{fill:#898781}#bc-saxpy-stride256-nvidia_geforce_gtx_1650-gbs .lt{fill:#c3c2b7}#bc-saxpy-stride256-nvidia_geforce_gtx_1650-gbs .ln1{stroke:#3987e5}#bc-saxpy-stride256-nvidia_geforce_gtx_1650-gbs .mk1{fill:#3987e5;stroke:#1a1a19}#bc-saxpy-stride256-nvidia_geforce_gtx_1650-gbs .ln2{stroke:#008300}#bc-saxpy-stride256-nvidia_geforce_gtx_1650-gbs .mk2{fill:#008300;stroke:#1a1a19}}:root[data-theme=dark] #bc-saxpy-stride256-nvidia_geforce_gtx_1650-gbs .bg{fill:#1a1a19}:root[data-theme=dark] #bc-saxpy-stride256-nvidia_geforce_gtx_1650-gbs .gr{stroke:#2c2c2a}:root[data-theme=dark] #bc-saxpy-stride256-nvidia_geforce_gtx_1650-gbs .ax{stroke:#383835}:root[data-theme=dark] #bc-saxpy-stride256-nvidia_geforce_gtx_1650-gbs .lt{fill:#c3c2b7}:root[data-theme=dark] #bc-saxpy-stride256-nvidia_geforce_gtx_1650-gbs .ln1{stroke:#3987e5}:root[data-theme=dark] #bc-saxpy-stride256-nvidia_geforce_gtx_1650-gbs .mk1{fill:#3987e5;stroke:#1a1a19}:root[data-theme=dark] #bc-saxpy-stride256-nvidia_geforce_gtx_1650-gbs .mk2{stroke:#1a1a19}</style>
<rect class="bg" width="600" height="260"/>
<line class="gr" x1="58" y1="220.0" x2="584" y2="220.0"/>
<line class="gr" x1="58" y1="180.0" x2="584" y2="180.0"/>
<line class="gr" x1="58" y1="140.0" x2="584" y2="140.0"/>
<line class="gr" x1="58" y1="100.0" x2="584" y2="100.0"/>
<line class="gr" x1="58" y1="60.0" x2="584" y2="60.0"/>
<line class="gr" x1="58" y1="20.0" x2="584" y2="20.0"/>
<line class="ax" x1="58" y1="20" x2="58" y2="220"/>
<line class="ax" x1="58" y1="220" x2="584" y2="220"/>
<text class="at" x="52" y="224.0" text-anchor="end">0</text>
<text class="at" x="52" y="184.0" text-anchor="end">2.0</text>
<text class="at" x="52" y="144.0" text-anchor="end">4.0</text>
<text class="at" x="52" y="104.0" text-anchor="end">6.0</text>
<text class="at" x="52" y="64.0" text-anchor="end">8.0</text>
<text class="at" x="52" y="24.0" text-anchor="end">10</text>
<text class="lt" x="12" y="120.0" text-anchor="middle" transform="rotate(-90 12 120.0)">GB/s</text>
<text class="at" x="58.0" y="236" text-anchor="middle">512</text>
<text class="at" x="133.1" y="236" text-anchor="middle">1.0K</text>
<text class="at" x="283.4" y="236" text-anchor="middle">4.1K</text>
<text class="at" x="433.7" y="236" text-anchor="middle">16K</text>
<text class="at" x="584.0" y="236" text-anchor="middle">65K</text>
<polyline class="ln1" points="58.0,200.0 133.1,181.7 283.4,105.6 433.7,125.1 584.0,132.5"/>
<polyline class="ln2" points="58.0,188.8 133.1,158.6 283.4,32.7 433.7,172.0 584.0,149.7"/>
<circle class="mk1" cx="58.0" cy="200.0" r="4"/>
<circle class="mk1" cx="133.1" cy="181.7" r="4"/>
<circle class="mk1" cx="283.4" cy="105.6" r="4"/>
<circle class="mk1" cx="433.7" cy="125.1" r="4"/>
<circle class="mk1" cx="584.0" cy="132.5" r="4"/>
<circle class="mk2" cx="58.0" cy="188.8" r="4"/>
<circle class="mk2" cx="133.1" cy="158.6" r="4"/>
<circle class="mk2" cx="283.4" cy="32.7" r="4"/>
<circle class="mk2" cx="433.7" cy="172.0" r="4"/>
<circle class="mk2" cx="584.0" cy="149.7" r="4"/>
<line class="ln1" x1="58" y1="252" x2="74" y2="252"/>
<circle class="mk1" cx="66" cy="252" r="4"/>
<text class="lt" x="80" y="256">wgblas</text>
<line class="ln2" x1="132" y1="252" x2="148" y2="252"/>
<circle class="mk2" cx="140" cy="252" r="4"/>
<text class="lt" x="154" y="256">cuBLAS</text>
</svg>