<svg id="bc-sswap-default-nvidia_geforce_gtx_1650-gbs" xmlns="http://www.w3.org/2000/svg" viewBox="0 0 600 260" width="600" height="260" role="img" aria-label="GB/s vs n">
<style>#bc-sswap-default-nvidia_geforce_gtx_1650-gbs .bg{fill:#fcfcfb}#bc-sswap-default-nvidia_geforce_gtx_1650-gbs .gr{stroke:#e1e0d9;stroke-width:1;fill:none}#bc-sswap-default-nvidia_geforce_gtx_1650-gbs .ax{stroke:#c3c2b7;stroke-width:1;fill:none}#bc-sswap-default-nvidia_geforce_gtx_1650-gbs .at{fill:#898781;font:11px/1 system-ui,sans-serif}#bc-sswap-default-nvidia_geforce_gtx_1650-gbs .lt{fill:#52514e;font:11px/1 system-ui,sans-serif}#bc-sswap-default-nvidia_geforce_gtx_1650-gbs .ln1{stroke:#2a78d6;fill:none;stroke-width:2;stroke-linejoin:round;stroke-linecap:round}#bc-sswap-default-nvidia_geforce_gtx_1650-gbs .mk1{fill:#2a78d6;stroke:#fcfcfb;stroke-width:2}#bc-sswap-default-nvidia_geforce_gtx_1650-gbs .ln2{stroke:#008300;fill:none;stroke-width:2;stroke-linejoin:round;stroke-linecap:round}#bc-sswap-default-nvidia_geforce_gtx_1650-gbs .mk2{fill:#008300;stroke:#fcfcfb;stroke-width:2}@media(prefers-color-scheme:dark){#bc-sswap-default-nvidia_geforce_gtx_1650-gbs .bg{fill:#1a1a19}#bc-sswap-default-nvidia_geforce_gtx_1650-gbs .gr{stroke:#2c2c2a}#bc-sswap-default-nvidia_geforce_gtx_1650-gbs .ax{stroke:#383835}#bc-sswap-default-nvidia_geforce_gtx_1650-gbs .at{fill:#898781}#bc-sswap-default-nvidia_geforce_gtx_1650-gbs .lt{fill:#c3c2b7}#bc-sswap-default-nvidia_geforce_gtx_1650-gbs .ln1{stroke:#3987e5}#bc-sswap-default-nvidia_geforce_gtx_1650-gbs .mk1{fill:#3987e5;stroke:#1a1a19}#bc-sswap-default-nvidia_geforce_gtx_1650-gbs .ln2{stroke:#008300}#bc-sswap-default-nvidia_geforce_gtx_1650-gbs .mk2{fill:#008300;stroke:#1a1a19}}:root[data-theme=dark] #bc-sswap-default-nvidia_geforce_gtx_1650-gbs .bg{fill:#1a1a19}:root[data-theme=dark] #bc-sswap-default-nvidia_geforce_gtx_1650-gbs .gr{stroke:#2c2c2a}:root[data-theme=dark] #bc-sswap-default-nvidia_geforce_gtx_1650-gbs .ax{stroke:#383835}:root[data-theme=dark] #bc-sswap-default-nvidia_geforce_gtx_1650-gbs .lt{fill:#c3c2b7}:root[data-theme=dark] #bc-sswap-default-nvidia_geforce_gtx_1650-gbs .ln1{stroke:#3987e5}:root[data-theme=dark] #bc-sswap-default-nvidia_geforce_gtx_1650-gbs .mk1{fill:#3987e5;stroke:#1a1a19}:root[data-theme=dark] #bc-sswap-default-nvidia_geforce_gtx_1650-gbs .mk2{stroke:#1a1a19}</style>
<rect class="bg" width="600" height="260"/>
<line class="gr" x1="58" y1="220.0" x2="584" y2="220.0"/>
<line class="gr" x1="58" y1="170.0" x2="584" y2="170.0"/>
<line class="gr" x1="58" y1="120.0" x2="584" y2="120.0"/>
<line class="gr" x1="58" y1="70.0" x2="584" y2="70.0"/>
<line class="gr" x1="58" y1="20.0" x2="584" y2="20.0"/>
<line class="ax" x1="58" y1="20" x2="58" y2="220"/>
<line class="ax" x1="58" y1="220" x2="584" y2="220"/>
<text class="at" x="52" y="224.0" text-anchor="end">0</text>
<text class="at" x="52" y="174.0" text-anchor="end">50</text>
<text class="at" x="52" y="124.0" text-anchor="end">100</text>
<text class="at" x="52" y="74.0" text-anchor="end">150</text>
<text class="at" x="52" y="24.0" text-anchor="end">200</text>
<text class="lt" x="12" y="120.0" text-anchor="middle" transform="rotate(-90 12 120.0)">GB/s</text>
<text class="at" x="58.0" y="236" text-anchor="middle">32</text>
<text class="at" x="85.7" y="236" text-anchor="middle">64</text>
<text class="at" x="113.4" y="236" text-anchor="middle">128</text>
<text class="at" x="168.7" y="236" text-anchor="middle">512</text>
<text class="at" x="196.4" y="236" text-anchor="middle">1.0K</text>
<text class="at" x="251.8" y="236" text-anchor="middle">4.1K</text>
<text class="at" x="307.2" y="236" text-anchor="middle">16K</text>
<text class="at" x="362.5" y="236" text-anchor="middle">65K</text>
<text class="at" x="417.9" y="236" text-anchor="middle">262K</text>
<text class="at" x="473.3" y="236" text-anchor="middle">1.0M</text>
<text class="at" x="528.6" y="236" text-anchor="middle">4.2M</text>
<text class="at" x="584.0" y="236" text-anchor="middle">17M</text>
<polyline class="ln1" points="58.0,219.9 85.7,219.8 113.4,219.7 168.7,218.7 196.4,217.4 251.8,210.0 307.2,184.8 362.5,104.2 417.9,74.8 473.3,55.5 528.6,49.2 584.0,48.0"/>
<polyline class="ln2" points="58.0,219.8 85.7,219.6 113.4,219.3 168.7,217.1 196.4,214.1 251.8,197.2 307.2,152.3 362.5,66.9 417.9,72.1 473.3,55.6 528.6,51.7 584.0,52.6"/>
<circle class="mk1" cx="58.0" cy="219.9" r="4"/>
<circle class="mk1" cx="85.7" cy="219.8" r="4"/>
<circle class="mk1" cx="113.4" cy="219.7" r="4"/>
<circle class="mk1" cx="168.7" cy="218.7" r="4"/>
<circle class="mk1" cx="196.4" cy="217.4" r="4"/>
<circle class="mk1" cx="251.8" cy="210.0" r="4"/>
<circle class="mk1" cx="307.2" cy="184.8" r="4"/>
<circle class="mk1" cx="362.5" cy="104.2" r="4"/>
<circle class="mk1" cx="417.9" cy="74.8" r="4"/>
<circle class="mk1" cx="473.3" cy="55.5" r="4"/>
<circle class="mk1" cx="528.6" cy="49.2" r="4"/>
<circle class="mk1" cx="584.0" cy="48.0" r="4"/>
<circle class="mk2" cx="58.0" cy="219.8" r="4"/>
<circle class="mk2" cx="85.7" cy="219.6" r="4"/>
<circle class="mk2" cx="113.4" cy="219.3" r="4"/>
<circle class="mk2" cx="168.7" cy="217.1" r="4"/>
<circle class="mk2" cx="196.4" cy="214.1" r="4"/>
<circle class="mk2" cx="251.8" cy="197.2" r="4"/>
<circle class="mk2" cx="307.2" cy="152.3" r="4"/>
<circle class="mk2" cx="362.5" cy="66.9" r="4"/>
<circle class="mk2" cx="417.9" cy="72.1" r="4"/>
<circle class="mk2" cx="473.3" cy="55.6" r="4"/>
<circle class="mk2" cx="528.6" cy="51.7" r="4"/>
<circle class="mk2" cx="584.0" cy="52.6" r="4"/>
<line class="ln1" x1="58" y1="252" x2="74" y2="252"/>
<circle class="mk1" cx="66" cy="252" r="4"/>
<text class="lt" x="80" y="256">wgblas</text>
<line class="ln2" x1="132" y1="252" x2="148" y2="252"/>
<circle class="mk2" cx="140" cy="252" r="4"/>
<text class="lt" x="154" y="256">cuBLAS</text>
</svg>