<svg id="bc-ssyr-alphaneg3p75-nvidia_geforce_gtx_1650-gbs" xmlns="http://www.w3.org/2000/svg" viewBox="0 0 600 260" width="600" height="260" role="img" aria-label="GB/s vs n">
<style>#bc-ssyr-alphaneg3p75-nvidia_geforce_gtx_1650-gbs .bg{fill:#fcfcfb}#bc-ssyr-alphaneg3p75-nvidia_geforce_gtx_1650-gbs .gr{stroke:#e1e0d9;stroke-width:1;fill:none}#bc-ssyr-alphaneg3p75-nvidia_geforce_gtx_1650-gbs .ax{stroke:#c3c2b7;stroke-width:1;fill:none}#bc-ssyr-alphaneg3p75-nvidia_geforce_gtx_1650-gbs .at{fill:#898781;font:11px/1 system-ui,sans-serif}#bc-ssyr-alphaneg3p75-nvidia_geforce_gtx_1650-gbs .lt{fill:#52514e;font:11px/1 system-ui,sans-serif}#bc-ssyr-alphaneg3p75-nvidia_geforce_gtx_1650-gbs .ln1{stroke:#2a78d6;fill:none;stroke-width:2;stroke-linejoin:round;stroke-linecap:round}#bc-ssyr-alphaneg3p75-nvidia_geforce_gtx_1650-gbs .mk1{fill:#2a78d6;stroke:#fcfcfb;stroke-width:2}#bc-ssyr-alphaneg3p75-nvidia_geforce_gtx_1650-gbs .ln2{stroke:#008300;fill:none;stroke-width:2;stroke-linejoin:round;stroke-linecap:round}#bc-ssyr-alphaneg3p75-nvidia_geforce_gtx_1650-gbs .mk2{fill:#008300;stroke:#fcfcfb;stroke-width:2}@media(prefers-color-scheme:dark){#bc-ssyr-alphaneg3p75-nvidia_geforce_gtx_1650-gbs .bg{fill:#1a1a19}#bc-ssyr-alphaneg3p75-nvidia_geforce_gtx_1650-gbs .gr{stroke:#2c2c2a}#bc-ssyr-alphaneg3p75-nvidia_geforce_gtx_1650-gbs .ax{stroke:#383835}#bc-ssyr-alphaneg3p75-nvidia_geforce_gtx_1650-gbs .at{fill:#898781}#bc-ssyr-alphaneg3p75-nvidia_geforce_gtx_1650-gbs .lt{fill:#c3c2b7}#bc-ssyr-alphaneg3p75-nvidia_geforce_gtx_1650-gbs .ln1{stroke:#3987e5}#bc-ssyr-alphaneg3p75-nvidia_geforce_gtx_1650-gbs .mk1{fill:#3987e5;stroke:#1a1a19}#bc-ssyr-alphaneg3p75-nvidia_geforce_gtx_1650-gbs .ln2{stroke:#008300}#bc-ssyr-alphaneg3p75-nvidia_geforce_gtx_1650-gbs .mk2{fill:#008300;stroke:#1a1a19}}:root[data-theme=dark] #bc-ssyr-alphaneg3p75-nvidia_geforce_gtx_1650-gbs .bg{fill:#1a1a19}:root[data-theme=dark] #bc-ssyr-alphaneg3p75-nvidia_geforce_gtx_1650-gbs .gr{stroke:#2c2c2a}:root[data-theme=dark] #bc-ssyr-alphaneg3p75-nvidia_geforce_gtx_1650-gbs .ax{stroke:#383835}:root[data-theme=dark] #bc-ssyr-alphaneg3p75-nvidia_geforce_gtx_1650-gbs .lt{fill:#c3c2b7}:root[data-theme=dark] #bc-ssyr-alphaneg3p75-nvidia_geforce_gtx_1650-gbs .ln1{stroke:#3987e5}:root[data-theme=dark] #bc-ssyr-alphaneg3p75-nvidia_geforce_gtx_1650-gbs .mk1{fill:#3987e5;stroke:#1a1a19}:root[data-theme=dark] #bc-ssyr-alphaneg3p75-nvidia_geforce_gtx_1650-gbs .mk2{stroke:#1a1a19}</style>
<rect class="bg" width="600" height="260"/>
<line class="gr" x1="58" y1="220.0" x2="584" y2="220.0"/>
<line class="gr" x1="58" y1="170.0" x2="584" y2="170.0"/>
<line class="gr" x1="58" y1="120.0" x2="584" y2="120.0"/>
<line class="gr" x1="58" y1="70.0" x2="584" y2="70.0"/>
<line class="gr" x1="58" y1="20.0" x2="584" y2="20.0"/>
<line class="ax" x1="58" y1="20" x2="58" y2="220"/>
<line class="ax" x1="58" y1="220" x2="584" y2="220"/>
<text class="at" x="52" y="224.0" text-anchor="end">0</text>
<text class="at" x="52" y="174.0" text-anchor="end">50</text>
<text class="at" x="52" y="124.0" text-anchor="end">100</text>
<text class="at" x="52" y="74.0" text-anchor="end">150</text>
<text class="at" x="52" y="24.0" text-anchor="end">200</text>
<text class="lt" x="12" y="120.0" text-anchor="middle" transform="rotate(-90 12 120.0)">GB/s</text>
<text class="at" x="58.0" y="236" text-anchor="middle">32</text>
<text class="at" x="133.1" y="236" text-anchor="middle">64</text>
<text class="at" x="208.3" y="236" text-anchor="middle">128</text>
<text class="at" x="283.4" y="236" text-anchor="middle">256</text>
<text class="at" x="358.6" y="236" text-anchor="middle">512</text>
<text class="at" x="433.7" y="236" text-anchor="middle">1.0K</text>
<text class="at" x="457.9" y="236" text-anchor="middle">1.3K</text>
<text class="at" x="508.9" y="236" text-anchor="middle">2.0K</text>
<text class="at" x="584.0" y="236" text-anchor="middle">4.1K</text>
<polyline class="ln1" points="58.0,219.4 133.1,217.8 208.3,211.6 283.4,190.7 358.6,132.0 433.7,105.5 457.9,97.9 508.9,80.2 584.0,68.9"/>
<polyline class="ln2" points="58.0,218.8 133.1,215.1 208.3,201.3 283.4,150.0 358.6,47.3 433.7,84.5 457.9,126.3 508.9,78.5 584.0,69.5"/>
<circle class="mk1" cx="58.0" cy="219.4" r="4"/>
<circle class="mk1" cx="133.1" cy="217.8" r="4"/>
<circle class="mk1" cx="208.3" cy="211.6" r="4"/>
<circle class="mk1" cx="283.4" cy="190.7" r="4"/>
<circle class="mk1" cx="358.6" cy="132.0" r="4"/>
<circle class="mk1" cx="433.7" cy="105.5" r="4"/>
<circle class="mk1" cx="457.9" cy="97.9" r="4"/>
<circle class="mk1" cx="508.9" cy="80.2" r="4"/>
<circle class="mk1" cx="584.0" cy="68.9" r="4"/>
<circle class="mk2" cx="58.0" cy="218.8" r="4"/>
<circle class="mk2" cx="133.1" cy="215.1" r="4"/>
<circle class="mk2" cx="208.3" cy="201.3" r="4"/>
<circle class="mk2" cx="283.4" cy="150.0" r="4"/>
<circle class="mk2" cx="358.6" cy="47.3" r="4"/>
<circle class="mk2" cx="433.7" cy="84.5" r="4"/>
<circle class="mk2" cx="457.9" cy="126.3" r="4"/>
<circle class="mk2" cx="508.9" cy="78.5" r="4"/>
<circle class="mk2" cx="584.0" cy="69.5" r="4"/>
<line class="ln1" x1="58" y1="252" x2="74" y2="252"/>
<circle class="mk1" cx="66" cy="252" r="4"/>
<text class="lt" x="80" y="256">wgblas</text>
<line class="ln2" x1="132" y1="252" x2="148" y2="252"/>
<circle class="mk2" cx="140" cy="252" r="4"/>
<text class="lt" x="154" y="256">cuBLAS</text>
</svg>