<svg id="bc-ssyr2-default-nvidia_geforce_gtx_1650-gbs" xmlns="http://www.w3.org/2000/svg" viewBox="0 0 600 260" width="600" height="260" role="img" aria-label="GB/s vs n">
<style>#bc-ssyr2-default-nvidia_geforce_gtx_1650-gbs .bg{fill:#fcfcfb}#bc-ssyr2-default-nvidia_geforce_gtx_1650-gbs .gr{stroke:#e1e0d9;stroke-width:1;fill:none}#bc-ssyr2-default-nvidia_geforce_gtx_1650-gbs .ax{stroke:#c3c2b7;stroke-width:1;fill:none}#bc-ssyr2-default-nvidia_geforce_gtx_1650-gbs .at{fill:#898781;font:11px/1 system-ui,sans-serif}#bc-ssyr2-default-nvidia_geforce_gtx_1650-gbs .lt{fill:#52514e;font:11px/1 system-ui,sans-serif}#bc-ssyr2-default-nvidia_geforce_gtx_1650-gbs .ln1{stroke:#2a78d6;fill:none;stroke-width:2;stroke-linejoin:round;stroke-linecap:round}#bc-ssyr2-default-nvidia_geforce_gtx_1650-gbs .mk1{fill:#2a78d6;stroke:#fcfcfb;stroke-width:2}#bc-ssyr2-default-nvidia_geforce_gtx_1650-gbs .ln2{stroke:#008300;fill:none;stroke-width:2;stroke-linejoin:round;stroke-linecap:round}#bc-ssyr2-default-nvidia_geforce_gtx_1650-gbs .mk2{fill:#008300;stroke:#fcfcfb;stroke-width:2}@media(prefers-color-scheme:dark){#bc-ssyr2-default-nvidia_geforce_gtx_1650-gbs .bg{fill:#1a1a19}#bc-ssyr2-default-nvidia_geforce_gtx_1650-gbs .gr{stroke:#2c2c2a}#bc-ssyr2-default-nvidia_geforce_gtx_1650-gbs .ax{stroke:#383835}#bc-ssyr2-default-nvidia_geforce_gtx_1650-gbs .at{fill:#898781}#bc-ssyr2-default-nvidia_geforce_gtx_1650-gbs .lt{fill:#c3c2b7}#bc-ssyr2-default-nvidia_geforce_gtx_1650-gbs .ln1{stroke:#3987e5}#bc-ssyr2-default-nvidia_geforce_gtx_1650-gbs .mk1{fill:#3987e5;stroke:#1a1a19}#bc-ssyr2-default-nvidia_geforce_gtx_1650-gbs .ln2{stroke:#008300}#bc-ssyr2-default-nvidia_geforce_gtx_1650-gbs .mk2{fill:#008300;stroke:#1a1a19}}:root[data-theme=dark] #bc-ssyr2-default-nvidia_geforce_gtx_1650-gbs .bg{fill:#1a1a19}:root[data-theme=dark] #bc-ssyr2-default-nvidia_geforce_gtx_1650-gbs .gr{stroke:#2c2c2a}:root[data-theme=dark] #bc-ssyr2-default-nvidia_geforce_gtx_1650-gbs .ax{stroke:#383835}:root[data-theme=dark] #bc-ssyr2-default-nvidia_geforce_gtx_1650-gbs .lt{fill:#c3c2b7}:root[data-theme=dark] #bc-ssyr2-default-nvidia_geforce_gtx_1650-gbs .ln1{stroke:#3987e5}:root[data-theme=dark] #bc-ssyr2-default-nvidia_geforce_gtx_1650-gbs .mk1{fill:#3987e5;stroke:#1a1a19}:root[data-theme=dark] #bc-ssyr2-default-nvidia_geforce_gtx_1650-gbs .mk2{stroke:#1a1a19}</style>
<rect class="bg" width="600" height="260"/>
<line class="gr" x1="58" y1="220.0" x2="584" y2="220.0"/>
<line class="gr" x1="58" y1="186.7" x2="584" y2="186.7"/>
<line class="gr" x1="58" y1="153.3" x2="584" y2="153.3"/>
<line class="gr" x1="58" y1="120.0" x2="584" y2="120.0"/>
<line class="gr" x1="58" y1="86.7" x2="584" y2="86.7"/>
<line class="gr" x1="58" y1="53.3" x2="584" y2="53.3"/>
<line class="gr" x1="58" y1="20.0" x2="584" y2="20.0"/>
<line class="ax" x1="58" y1="20" x2="58" y2="220"/>
<line class="ax" x1="58" y1="220" x2="584" y2="220"/>
<text class="at" x="52" y="224.0" text-anchor="end">0</text>
<text class="at" x="52" y="190.7" text-anchor="end">25</text>
<text class="at" x="52" y="157.3" text-anchor="end">50</text>
<text class="at" x="52" y="124.0" text-anchor="end">75</text>
<text class="at" x="52" y="90.7" text-anchor="end">100</text>
<text class="at" x="52" y="57.3" text-anchor="end">125</text>
<text class="at" x="52" y="24.0" text-anchor="end">150</text>
<text class="lt" x="12" y="120.0" text-anchor="middle" transform="rotate(-90 12 120.0)">GB/s</text>
<text class="at" x="58.0" y="236" text-anchor="middle">32</text>
<text class="at" x="133.1" y="236" text-anchor="middle">64</text>
<text class="at" x="208.3" y="236" text-anchor="middle">128</text>
<text class="at" x="283.4" y="236" text-anchor="middle">256</text>
<text class="at" x="358.6" y="236" text-anchor="middle">512</text>
<text class="at" x="433.7" y="236" text-anchor="middle">1.0K</text>
<text class="at" x="457.9" y="236" text-anchor="middle">1.3K</text>
<text class="at" x="508.9" y="236" text-anchor="middle">2.0K</text>
<text class="at" x="584.0" y="236" text-anchor="middle">4.1K</text>
<polyline class="ln1" points="58.0,219.2 133.1,216.8 208.3,208.0 283.4,176.8 358.6,90.9 433.7,121.2 457.9,125.0 508.9,116.0 584.0,109.1"/>
<polyline class="ln2" points="58.0,218.5 133.1,214.5 208.3,198.8 283.4,150.1 358.6,51.9 433.7,66.5 457.9,100.0 508.9,53.0 584.0,46.5"/>
<circle class="mk1" cx="58.0" cy="219.2" r="4"/>
<circle class="mk1" cx="133.1" cy="216.8" r="4"/>
<circle class="mk1" cx="208.3" cy="208.0" r="4"/>
<circle class="mk1" cx="283.4" cy="176.8" r="4"/>
<circle class="mk1" cx="358.6" cy="90.9" r="4"/>
<circle class="mk1" cx="433.7" cy="121.2" r="4"/>
<circle class="mk1" cx="457.9" cy="125.0" r="4"/>
<circle class="mk1" cx="508.9" cy="116.0" r="4"/>
<circle class="mk1" cx="584.0" cy="109.1" r="4"/>
<circle class="mk2" cx="58.0" cy="218.5" r="4"/>
<circle class="mk2" cx="133.1" cy="214.5" r="4"/>
<circle class="mk2" cx="208.3" cy="198.8" r="4"/>
<circle class="mk2" cx="283.4" cy="150.1" r="4"/>
<circle class="mk2" cx="358.6" cy="51.9" r="4"/>
<circle class="mk2" cx="433.7" cy="66.5" r="4"/>
<circle class="mk2" cx="457.9" cy="100.0" r="4"/>
<circle class="mk2" cx="508.9" cy="53.0" r="4"/>
<circle class="mk2" cx="584.0" cy="46.5" r="4"/>
<line class="ln1" x1="58" y1="252" x2="74" y2="252"/>
<circle class="mk1" cx="66" cy="252" r="4"/>
<text class="lt" x="80" y="256">wgblas</text>
<line class="ln2" x1="132" y1="252" x2="148" y2="252"/>
<circle class="mk2" cx="140" cy="252" r="4"/>
<text class="lt" x="154" y="256">cuBLAS</text>
</svg>