<svg id="bc-ssymv-default-nvidia_geforce_rtx_4060_laptop_gpu-ms" xmlns="http://www.w3.org/2000/svg" viewBox="0 0 600 260" width="600" height="260" role="img" aria-label="ms vs n">
<style>#bc-ssymv-default-nvidia_geforce_rtx_4060_laptop_gpu-ms .bg{fill:#fcfcfb}#bc-ssymv-default-nvidia_geforce_rtx_4060_laptop_gpu-ms .gr{stroke:#e1e0d9;stroke-width:1;fill:none}#bc-ssymv-default-nvidia_geforce_rtx_4060_laptop_gpu-ms .ax{stroke:#c3c2b7;stroke-width:1;fill:none}#bc-ssymv-default-nvidia_geforce_rtx_4060_laptop_gpu-ms .at{fill:#898781;font:11px/1 system-ui,sans-serif}#bc-ssymv-default-nvidia_geforce_rtx_4060_laptop_gpu-ms .lt{fill:#52514e;font:11px/1 system-ui,sans-serif}#bc-ssymv-default-nvidia_geforce_rtx_4060_laptop_gpu-ms .ln1{stroke:#2a78d6;fill:none;stroke-width:2;stroke-linejoin:round;stroke-linecap:round}#bc-ssymv-default-nvidia_geforce_rtx_4060_laptop_gpu-ms .mk1{fill:#2a78d6;stroke:#fcfcfb;stroke-width:2}#bc-ssymv-default-nvidia_geforce_rtx_4060_laptop_gpu-ms .ln2{stroke:#008300;fill:none;stroke-width:2;stroke-linejoin:round;stroke-linecap:round}#bc-ssymv-default-nvidia_geforce_rtx_4060_laptop_gpu-ms .mk2{fill:#008300;stroke:#fcfcfb;stroke-width:2}@media(prefers-color-scheme:dark){#bc-ssymv-default-nvidia_geforce_rtx_4060_laptop_gpu-ms .bg{fill:#1a1a19}#bc-ssymv-default-nvidia_geforce_rtx_4060_laptop_gpu-ms .gr{stroke:#2c2c2a}#bc-ssymv-default-nvidia_geforce_rtx_4060_laptop_gpu-ms .ax{stroke:#383835}#bc-ssymv-default-nvidia_geforce_rtx_4060_laptop_gpu-ms .at{fill:#898781}#bc-ssymv-default-nvidia_geforce_rtx_4060_laptop_gpu-ms .lt{fill:#c3c2b7}#bc-ssymv-default-nvidia_geforce_rtx_4060_laptop_gpu-ms .ln1{stroke:#3987e5}#bc-ssymv-default-nvidia_geforce_rtx_4060_laptop_gpu-ms .mk1{fill:#3987e5;stroke:#1a1a19}#bc-ssymv-default-nvidia_geforce_rtx_4060_laptop_gpu-ms .ln2{stroke:#008300}#bc-ssymv-default-nvidia_geforce_rtx_4060_laptop_gpu-ms .mk2{fill:#008300;stroke:#1a1a19}}:root[data-theme=dark] #bc-ssymv-default-nvidia_geforce_rtx_4060_laptop_gpu-ms .bg{fill:#1a1a19}:root[data-theme=dark] #bc-ssymv-default-nvidia_geforce_rtx_4060_laptop_gpu-ms .gr{stroke:#2c2c2a}:root[data-theme=dark] #bc-ssymv-default-nvidia_geforce_rtx_4060_laptop_gpu-ms .ax{stroke:#383835}:root[data-theme=dark] #bc-ssymv-default-nvidia_geforce_rtx_4060_laptop_gpu-ms .lt{fill:#c3c2b7}:root[data-theme=dark] #bc-ssymv-default-nvidia_geforce_rtx_4060_laptop_gpu-ms .ln1{stroke:#3987e5}:root[data-theme=dark] #bc-ssymv-default-nvidia_geforce_rtx_4060_laptop_gpu-ms .mk1{fill:#3987e5;stroke:#1a1a19}:root[data-theme=dark] #bc-ssymv-default-nvidia_geforce_rtx_4060_laptop_gpu-ms .mk2{stroke:#1a1a19}</style>
<rect class="bg" width="600" height="260"/>
<line class="gr" x1="58" y1="220.0" x2="584" y2="220.0"/>
<line class="gr" x1="58" y1="180.0" x2="584" y2="180.0"/>
<line class="gr" x1="58" y1="140.0" x2="584" y2="140.0"/>
<line class="gr" x1="58" y1="100.0" x2="584" y2="100.0"/>
<line class="gr" x1="58" y1="60.0" x2="584" y2="60.0"/>
<line class="gr" x1="58" y1="20.0" x2="584" y2="20.0"/>
<line class="ax" x1="58" y1="20" x2="58" y2="220"/>
<line class="ax" x1="58" y1="220" x2="584" y2="220"/>
<text class="at" x="52" y="224.0" text-anchor="end">0</text>
<text class="at" x="52" y="184.0" text-anchor="end">0.100</text>
<text class="at" x="52" y="144.0" text-anchor="end">0.200</text>
<text class="at" x="52" y="104.0" text-anchor="end">0.300</text>
<text class="at" x="52" y="64.0" text-anchor="end">0.400</text>
<text class="at" x="52" y="24.0" text-anchor="end">0.500</text>
<text class="lt" x="12" y="120.0" text-anchor="middle" transform="rotate(-90 12 120.0)">ms</text>
<text class="at" x="58.0" y="236" text-anchor="middle">32</text>
<text class="at" x="133.1" y="236" text-anchor="middle">64</text>
<text class="at" x="208.3" y="236" text-anchor="middle">128</text>
<text class="at" x="283.4" y="236" text-anchor="middle">256</text>
<text class="at" x="358.6" y="236" text-anchor="middle">512</text>
<text class="at" x="433.7" y="236" text-anchor="middle">1.0K</text>
<text class="at" x="457.9" y="236" text-anchor="middle">1.3K</text>
<text class="at" x="508.9" y="236" text-anchor="middle">2.0K</text>
<text class="at" x="584.0" y="236" text-anchor="middle">4.1K</text>
<polyline class="ln1" points="58.0,217.5 133.1,217.5 208.3,217.1 283.4,216.7 358.6,215.9 433.7,211.4 457.9,208.1 508.9,196.7 584.0,30.8"/>
<polyline class="ln2" points="58.0,218.4 133.1,218.4 208.3,218.0 283.4,217.6 358.6,216.3 433.7,213.4 457.9,209.8 508.9,208.5 584.0,170.4"/>
<circle class="mk1" cx="58.0" cy="217.5" r="4"/>
<circle class="mk1" cx="133.1" cy="217.5" r="4"/>
<circle class="mk1" cx="208.3" cy="217.1" r="4"/>
<circle class="mk1" cx="283.4" cy="216.7" r="4"/>
<circle class="mk1" cx="358.6" cy="215.9" r="4"/>
<circle class="mk1" cx="433.7" cy="211.4" r="4"/>
<circle class="mk1" cx="457.9" cy="208.1" r="4"/>
<circle class="mk1" cx="508.9" cy="196.7" r="4"/>
<circle class="mk1" cx="584.0" cy="30.8" r="4"/>
<circle class="mk2" cx="58.0" cy="218.4" r="4"/>
<circle class="mk2" cx="133.1" cy="218.4" r="4"/>
<circle class="mk2" cx="208.3" cy="218.0" r="4"/>
<circle class="mk2" cx="283.4" cy="217.6" r="4"/>
<circle class="mk2" cx="358.6" cy="216.3" r="4"/>
<circle class="mk2" cx="433.7" cy="213.4" r="4"/>
<circle class="mk2" cx="457.9" cy="209.8" r="4"/>
<circle class="mk2" cx="508.9" cy="208.5" r="4"/>
<circle class="mk2" cx="584.0" cy="170.4" r="4"/>
</svg>