<svg id="bc-saxpy-stride32-nvidia_geforce_gtx_1650-ms" xmlns="http://www.w3.org/2000/svg" viewBox="0 0 600 260" width="600" height="260" role="img" aria-label="ms vs n">
<style>#bc-saxpy-stride32-nvidia_geforce_gtx_1650-ms .bg{fill:#fcfcfb}#bc-saxpy-stride32-nvidia_geforce_gtx_1650-ms .gr{stroke:#e1e0d9;stroke-width:1;fill:none}#bc-saxpy-stride32-nvidia_geforce_gtx_1650-ms .ax{stroke:#c3c2b7;stroke-width:1;fill:none}#bc-saxpy-stride32-nvidia_geforce_gtx_1650-ms .at{fill:#898781;font:11px/1 system-ui,sans-serif}#bc-saxpy-stride32-nvidia_geforce_gtx_1650-ms .lt{fill:#52514e;font:11px/1 system-ui,sans-serif}#bc-saxpy-stride32-nvidia_geforce_gtx_1650-ms .ln1{stroke:#2a78d6;fill:none;stroke-width:2;stroke-linejoin:round;stroke-linecap:round}#bc-saxpy-stride32-nvidia_geforce_gtx_1650-ms .mk1{fill:#2a78d6;stroke:#fcfcfb;stroke-width:2}#bc-saxpy-stride32-nvidia_geforce_gtx_1650-ms .ln2{stroke:#008300;fill:none;stroke-width:2;stroke-linejoin:round;stroke-linecap:round}#bc-saxpy-stride32-nvidia_geforce_gtx_1650-ms .mk2{fill:#008300;stroke:#fcfcfb;stroke-width:2}@media(prefers-color-scheme:dark){#bc-saxpy-stride32-nvidia_geforce_gtx_1650-ms .bg{fill:#1a1a19}#bc-saxpy-stride32-nvidia_geforce_gtx_1650-ms .gr{stroke:#2c2c2a}#bc-saxpy-stride32-nvidia_geforce_gtx_1650-ms .ax{stroke:#383835}#bc-saxpy-stride32-nvidia_geforce_gtx_1650-ms .at{fill:#898781}#bc-saxpy-stride32-nvidia_geforce_gtx_1650-ms .lt{fill:#c3c2b7}#bc-saxpy-stride32-nvidia_geforce_gtx_1650-ms .ln1{stroke:#3987e5}#bc-saxpy-stride32-nvidia_geforce_gtx_1650-ms .mk1{fill:#3987e5;stroke:#1a1a19}#bc-saxpy-stride32-nvidia_geforce_gtx_1650-ms .ln2{stroke:#008300}#bc-saxpy-stride32-nvidia_geforce_gtx_1650-ms .mk2{fill:#008300;stroke:#1a1a19}}:root[data-theme=dark] #bc-saxpy-stride32-nvidia_geforce_gtx_1650-ms .bg{fill:#1a1a19}:root[data-theme=dark] #bc-saxpy-stride32-nvidia_geforce_gtx_1650-ms .gr{stroke:#2c2c2a}:root[data-theme=dark] #bc-saxpy-stride32-nvidia_geforce_gtx_1650-ms .ax{stroke:#383835}:root[data-theme=dark] #bc-saxpy-stride32-nvidia_geforce_gtx_1650-ms .lt{fill:#c3c2b7}:root[data-theme=dark] #bc-saxpy-stride32-nvidia_geforce_gtx_1650-ms .ln1{stroke:#3987e5}:root[data-theme=dark] #bc-saxpy-stride32-nvidia_geforce_gtx_1650-ms .mk1{fill:#3987e5;stroke:#1a1a19}:root[data-theme=dark] #bc-saxpy-stride32-nvidia_geforce_gtx_1650-ms .mk2{stroke:#1a1a19}</style>
<rect class="bg" width="600" height="260"/>
<line class="gr" x1="58" y1="220.0" x2="584" y2="220.0"/>
<line class="gr" x1="58" y1="170.0" x2="584" y2="170.0"/>
<line class="gr" x1="58" y1="120.0" x2="584" y2="120.0"/>
<line class="gr" x1="58" y1="70.0" x2="584" y2="70.0"/>
<line class="gr" x1="58" y1="20.0" x2="584" y2="20.0"/>
<line class="ax" x1="58" y1="20" x2="58" y2="220"/>
<line class="ax" x1="58" y1="220" x2="584" y2="220"/>
<text class="at" x="52" y="224.0" text-anchor="end">0</text>
<text class="at" x="52" y="174.0" text-anchor="end">0.500</text>
<text class="at" x="52" y="124.0" text-anchor="end">1.00</text>
<text class="at" x="52" y="74.0" text-anchor="end">1.50</text>
<text class="at" x="52" y="24.0" text-anchor="end">2.00</text>
<text class="lt" x="12" y="120.0" text-anchor="middle" transform="rotate(-90 12 120.0)">ms</text>
<text class="at" x="58.0" y="236" text-anchor="middle">32</text>
<text class="at" x="93.1" y="236" text-anchor="middle">64</text>
<text class="at" x="128.1" y="236" text-anchor="middle">128</text>
<text class="at" x="198.3" y="236" text-anchor="middle">512</text>
<text class="at" x="233.3" y="236" text-anchor="middle">1.0K</text>
<text class="at" x="303.5" y="236" text-anchor="middle">4.1K</text>
<text class="at" x="373.6" y="236" text-anchor="middle">16K</text>
<text class="at" x="443.7" y="236" text-anchor="middle">65K</text>
<text class="at" x="513.9" y="236" text-anchor="middle">262K</text>
<text class="at" x="584.0" y="236" text-anchor="middle">1.0M</text>
<polyline class="ln1" points="58.0,219.4 93.1,219.4 128.1,219.4 198.3,219.4 233.3,219.4 303.5,219.2 373.6,217.5 443.7,211.2 513.9,186.0 584.0,85.7"/>
<polyline class="ln2" points="58.0,219.6 93.1,219.6 128.1,219.6 198.3,219.6 233.3,219.6 303.5,219.4 373.6,214.9 443.7,207.2 513.9,179.2 584.0,57.6"/>
<circle class="mk1" cx="58.0" cy="219.4" r="4"/>
<circle class="mk1" cx="93.1" cy="219.4" r="4"/>
<circle class="mk1" cx="128.1" cy="219.4" r="4"/>
<circle class="mk1" cx="198.3" cy="219.4" r="4"/>
<circle class="mk1" cx="233.3" cy="219.4" r="4"/>
<circle class="mk1" cx="303.5" cy="219.2" r="4"/>
<circle class="mk1" cx="373.6" cy="217.5" r="4"/>
<circle class="mk1" cx="443.7" cy="211.2" r="4"/>
<circle class="mk1" cx="513.9" cy="186.0" r="4"/>
<circle class="mk1" cx="584.0" cy="85.7" r="4"/>
<circle class="mk2" cx="58.0" cy="219.6" r="4"/>
<circle class="mk2" cx="93.1" cy="219.6" r="4"/>
<circle class="mk2" cx="128.1" cy="219.6" r="4"/>
<circle class="mk2" cx="198.3" cy="219.6" r="4"/>
<circle class="mk2" cx="233.3" cy="219.6" r="4"/>
<circle class="mk2" cx="303.5" cy="219.4" r="4"/>
<circle class="mk2" cx="373.6" cy="214.9" r="4"/>
<circle class="mk2" cx="443.7" cy="207.2" r="4"/>
<circle class="mk2" cx="513.9" cy="179.2" r="4"/>
<circle class="mk2" cx="584.0" cy="57.6" r="4"/>
</svg>