<svg id="bc-sgemv-stride4-nvidia_geforce_gtx_1650-ms" xmlns="http://www.w3.org/2000/svg" viewBox="0 0 600 260" width="600" height="260" role="img" aria-label="ms vs n">
<style>#bc-sgemv-stride4-nvidia_geforce_gtx_1650-ms .bg{fill:#fcfcfb}#bc-sgemv-stride4-nvidia_geforce_gtx_1650-ms .gr{stroke:#e1e0d9;stroke-width:1;fill:none}#bc-sgemv-stride4-nvidia_geforce_gtx_1650-ms .ax{stroke:#c3c2b7;stroke-width:1;fill:none}#bc-sgemv-stride4-nvidia_geforce_gtx_1650-ms .at{fill:#898781;font:11px/1 system-ui,sans-serif}#bc-sgemv-stride4-nvidia_geforce_gtx_1650-ms .lt{fill:#52514e;font:11px/1 system-ui,sans-serif}#bc-sgemv-stride4-nvidia_geforce_gtx_1650-ms .ln1{stroke:#2a78d6;fill:none;stroke-width:2;stroke-linejoin:round;stroke-linecap:round}#bc-sgemv-stride4-nvidia_geforce_gtx_1650-ms .mk1{fill:#2a78d6;stroke:#fcfcfb;stroke-width:2}#bc-sgemv-stride4-nvidia_geforce_gtx_1650-ms .ln2{stroke:#008300;fill:none;stroke-width:2;stroke-linejoin:round;stroke-linecap:round}#bc-sgemv-stride4-nvidia_geforce_gtx_1650-ms .mk2{fill:#008300;stroke:#fcfcfb;stroke-width:2}@media(prefers-color-scheme:dark){#bc-sgemv-stride4-nvidia_geforce_gtx_1650-ms .bg{fill:#1a1a19}#bc-sgemv-stride4-nvidia_geforce_gtx_1650-ms .gr{stroke:#2c2c2a}#bc-sgemv-stride4-nvidia_geforce_gtx_1650-ms .ax{stroke:#383835}#bc-sgemv-stride4-nvidia_geforce_gtx_1650-ms .at{fill:#898781}#bc-sgemv-stride4-nvidia_geforce_gtx_1650-ms .lt{fill:#c3c2b7}#bc-sgemv-stride4-nvidia_geforce_gtx_1650-ms .ln1{stroke:#3987e5}#bc-sgemv-stride4-nvidia_geforce_gtx_1650-ms .mk1{fill:#3987e5;stroke:#1a1a19}#bc-sgemv-stride4-nvidia_geforce_gtx_1650-ms .ln2{stroke:#008300}#bc-sgemv-stride4-nvidia_geforce_gtx_1650-ms .mk2{fill:#008300;stroke:#1a1a19}}:root[data-theme=dark] #bc-sgemv-stride4-nvidia_geforce_gtx_1650-ms .bg{fill:#1a1a19}:root[data-theme=dark] #bc-sgemv-stride4-nvidia_geforce_gtx_1650-ms .gr{stroke:#2c2c2a}:root[data-theme=dark] #bc-sgemv-stride4-nvidia_geforce_gtx_1650-ms .ax{stroke:#383835}:root[data-theme=dark] #bc-sgemv-stride4-nvidia_geforce_gtx_1650-ms .lt{fill:#c3c2b7}:root[data-theme=dark] #bc-sgemv-stride4-nvidia_geforce_gtx_1650-ms .ln1{stroke:#3987e5}:root[data-theme=dark] #bc-sgemv-stride4-nvidia_geforce_gtx_1650-ms .mk1{fill:#3987e5;stroke:#1a1a19}:root[data-theme=dark] #bc-sgemv-stride4-nvidia_geforce_gtx_1650-ms .mk2{stroke:#1a1a19}</style>
<rect class="bg" width="600" height="260"/>
<line class="gr" x1="58" y1="220.0" x2="584" y2="220.0"/>
<line class="gr" x1="58" y1="186.7" x2="584" y2="186.7"/>
<line class="gr" x1="58" y1="153.3" x2="584" y2="153.3"/>
<line class="gr" x1="58" y1="120.0" x2="584" y2="120.0"/>
<line class="gr" x1="58" y1="86.7" x2="584" y2="86.7"/>
<line class="gr" x1="58" y1="53.3" x2="584" y2="53.3"/>
<line class="gr" x1="58" y1="20.0" x2="584" y2="20.0"/>
<line class="ax" x1="58" y1="20" x2="58" y2="220"/>
<line class="ax" x1="58" y1="220" x2="584" y2="220"/>
<text class="at" x="52" y="224.0" text-anchor="end">0</text>
<text class="at" x="52" y="190.7" text-anchor="end">0.100</text>
<text class="at" x="52" y="157.3" text-anchor="end">0.200</text>
<text class="at" x="52" y="124.0" text-anchor="end">0.300</text>
<text class="at" x="52" y="90.7" text-anchor="end">0.400</text>
<text class="at" x="52" y="57.3" text-anchor="end">0.500</text>
<text class="at" x="52" y="24.0" text-anchor="end">0.600</text>
<text class="lt" x="12" y="120.0" text-anchor="middle" transform="rotate(-90 12 120.0)">ms</text>
<text class="at" x="58.0" y="236" text-anchor="middle">32</text>
<text class="at" x="133.1" y="236" text-anchor="middle">64</text>
<text class="at" x="208.3" y="236" text-anchor="middle">128</text>
<text class="at" x="283.4" y="236" text-anchor="middle">256</text>
<text class="at" x="358.6" y="236" text-anchor="middle">512</text>
<text class="at" x="433.7" y="236" text-anchor="middle">1.0K</text>
<text class="at" x="457.9" y="236" text-anchor="middle">1.3K</text>
<text class="at" x="508.9" y="236" text-anchor="middle">2.0K</text>
<text class="at" x="584.0" y="236" text-anchor="middle">4.1K</text>
<polyline class="ln1" points="58.0,215.4 133.1,216.4 208.3,215.0 283.4,212.6 358.6,202.0 433.7,180.7 457.9,170.8 508.9,142.1 584.0,45.7"/>
<polyline class="ln2" points="58.0,217.3 133.1,217.5 208.3,217.3 283.4,215.3 358.6,215.0 433.7,206.1 457.9,201.0 508.9,94.1 584.0,60.2"/>
<circle class="mk1" cx="58.0" cy="215.4" r="4"/>
<circle class="mk1" cx="133.1" cy="216.4" r="4"/>
<circle class="mk1" cx="208.3" cy="215.0" r="4"/>
<circle class="mk1" cx="283.4" cy="212.6" r="4"/>
<circle class="mk1" cx="358.6" cy="202.0" r="4"/>
<circle class="mk1" cx="433.7" cy="180.7" r="4"/>
<circle class="mk1" cx="457.9" cy="170.8" r="4"/>
<circle class="mk1" cx="508.9" cy="142.1" r="4"/>
<circle class="mk1" cx="584.0" cy="45.7" r="4"/>
<circle class="mk2" cx="58.0" cy="217.3" r="4"/>
<circle class="mk2" cx="133.1" cy="217.5" r="4"/>
<circle class="mk2" cx="208.3" cy="217.3" r="4"/>
<circle class="mk2" cx="283.4" cy="215.3" r="4"/>
<circle class="mk2" cx="358.6" cy="215.0" r="4"/>
<circle class="mk2" cx="433.7" cy="206.1" r="4"/>
<circle class="mk2" cx="457.9" cy="201.0" r="4"/>
<circle class="mk2" cx="508.9" cy="94.1" r="4"/>
<circle class="mk2" cx="584.0" cy="60.2" r="4"/>
</svg>